<svg version="1.0" xmlns="http://www.w3.org/2000/svg" width="512" height="512" viewBox="0 0 1184 1280">
  <path fill="forestgreen"
    d="M795 1c-21 2.7-33 6.4-54.5 17-34.3 16.9-68.2 43-90.5 69.8-12.2 14.5-33.2 45.8-40.4 60-5 9.9-7.5 24.8-11.5 69.2-2.1 22.7-3 34.6-7.6 98.5-4.4 60.6-7.4 90.7-9.4 94.2-1.6 2.9-4.8-20.2-14.6-104.7-13.2-113.9-16.1-132.6-24.6-160.1-8.5-27.7-21-48.3-41.3-68.4-23.7-23.4-52.8-40.6-87.1-51.6-28.5-9.1-51.7-9.3-82.7-.8-27 7.5-50 19.8-75.6 40.8-23 18.8-35.9 32.6-65.8 70.1-28.1 35.2-44 56.8-49.9 67.7-2 3.8-4 5.9-6.9 7.4-5 2.6-6.9 4.1-31.6 24.3-27.5 22.6-39.3 33-50.5 44.8-23.2 24.4-35.4 44.4-43.3 71.3-5.3 18-6.6 27.9-6.6 50 .1 27 3.1 47 9.1 58.9 5.1 10.3 23.5 32.1 36.1 42.9 19.6 16.8 61.7 38.9 92.6 48.7 40.6 12.8 79.7 19.1 167.1 27 70.7 6.4 97.2 9.6 104.4 12.6l3.4 1.4-3.4 3.6c-4.2 4.3-9.3 5.9-25.9 7.8-17.8 2.1-41.8 3.4-87 4.6-83.2 2.2-118.9 5-145 11.5-34.9 8.7-79.9 39.3-106 72C18.6 726 8 756.8 2.5 818c-2 21.6-2 42.1 0 48.6 2.7 9.2 17.7 31.6 39.3 58.7 15.7 19.6 27.4 31.9 45.5 47.6l17.2 15 8.9 19.1c4.9 10.5 11.1 23 13.8 27.8 16.3 28.5 43.8 64.6 65.1 85.5 20.1 19.7 34.1 27.8 59.9 34.6 34.9 9.3 88.6 13.3 111.9 8.3 26.7-5.6 60.2-25.1 85.1-49.4 11.2-10.9 22.8-27.6 32.3-46.7 11.7-23.5 21-61.9 34-141.6 9.6-58.2 15.6-90.3 19.5-102.8 3.9-12.5 9.7-18.3 20.4-20.3l3.8-.7-.6 8.4c-.8 11-4.2 85-5.7 123.9-1.3 32.9-.7 85.5 1.1 101 4.4 38.5 18.2 84.4 37.5 124.8 14.1 29.4 26 46 49.9 69.7 18.6 18.5 29.4 26.9 44.6 34.5 11.8 5.9 21.1 8.9 41.2 13 17.5 3.7 18 3.6 19.8-2.9.5-2 1.9-8.8 3.1-15.1 2.8-15.2 2.2-20.9-3.3-32-3.8-7.8-5.6-10-23-27.3-30.5-30.5-38.7-41.2-50.8-66.2-27.8-57.3-38.3-104.2-43.5-194-2.6-43.9-2-81.2 1.5-97 2-9.4 2.1-9.5 4.2-3.5 10.4 30.2 17.9 57.4 26.7 97.5 12.1 54.3 14.6 60.8 35.9 91.2 29.1 41.6 51.5 66.2 83.2 91.3 27.9 22.1 48.3 32.2 76.7 37.9 37.4 7.5 65 4 95.3-12.1 15.9-8.5 25.5-15.4 32.2-23.1 3.4-3.9 10-10.3 14.7-14.3 18.5-15.2 25.5-25.6 49.6-73.3 17.6-34.7 34-59.7 54.4-82.7 10.2-11.6 16.1-16.4 29.4-24.4l11-6.5 4.7-9c2.6-5 7.2-13.3 10.4-18.5 9.3-15.5 13.6-28.7 18.1-55.4 4.2-25.3 5.9-45.4 5.9-70.1-.1-28.1-.9-32-11.8-54-23-46.3-51.3-72.6-97.6-90.8-22.8-8.9-43-14.1-66.5-17.1-30.4-3.9-38.7-4.1-150-4.1-61.8 0-109.6-.4-110.4-.9-1.1-.7-1.1-1 .1-1.7 3.2-1.8 26-4.7 88.3-11.4 82.3-8.9 104.3-12.6 131-22.5 43-15.8 75.2-33.1 109-58.5 38.3-28.8 57.4-54.7 69-93.6 7.8-25.8 13.5-64.8 13.5-90.9-.1-20.9-2.7-31.7-13-52.5-14.9-30-30.6-47.5-58.7-65.7-7.9-5.1-25.8-16.8-39.7-26-36-23.6-45.4-33-72.2-71.8-15.2-22.2-25.4-35.3-36.6-47.7-26.4-29-59.3-48.9-91.8-55.4C834.9.6 806.6-.4 795 1z"/>
</svg>
